<svg width="105" height="62" viewBox="0 0 105 62" fill="none" xmlns="http://www.w3.org/2000/svg">
<g clip-path="url(#clip0_3002_960)">
<path d="M22.4934 23.0562C24.4615 23.0562 26.057 21.46 26.057 19.491C26.057 17.522 24.4615 15.9258 22.4934 15.9258C20.5252 15.9258 18.9297 17.522 18.9297 19.491C18.9297 21.46 20.5252 23.0562 22.4934 23.0562Z" fill="#F8F9FA"/>
<path d="M42.4826 19.4915C42.4826 16.6915 39.1971 14.2567 34.0863 12.7959C35.3727 7.63065 34.9207 3.56109 32.487 2.16978C30.0532 0.761088 26.3157 2.41326 22.4913 6.10022C18.6669 2.39587 14.9294 0.761088 12.4957 2.16978C10.4791 3.335 9.73164 6.29152 10.4096 10.5002C10.5313 11.248 10.7051 12.0133 10.8963 12.8133C5.78553 14.2741 2.5 16.7089 2.5 19.5089C2.5 22.3089 5.78553 24.7263 10.8963 26.2046C10.7051 26.9872 10.5313 27.7698 10.4096 28.5176C9.73164 32.7263 10.4791 35.6828 12.4957 36.848C13.0867 37.1959 13.7647 37.3698 14.5122 37.3698C16.2853 37.3698 18.4235 36.3959 20.7529 34.5002C21.3266 34.0307 21.9176 33.4915 22.4913 32.935C23.065 33.4915 23.656 34.0307 24.2297 34.5002C26.5591 36.3959 28.6973 37.3698 30.4704 37.3698C31.2179 37.3698 31.8959 37.1959 32.487 36.848C34.5035 35.6828 35.251 32.7263 34.5904 28.5176C34.4687 27.7698 34.2949 27.0046 34.1037 26.2046C39.2145 24.7437 42.5 22.3089 42.5 19.5089L42.4826 19.4915ZM31.6178 3.66544C33.1823 4.56978 33.53 7.87413 32.4 12.3611C30.766 11.9785 28.9754 11.7002 27.0806 11.5263C25.9854 9.97848 24.8381 8.56978 23.7082 7.335C26.3505 4.77848 28.8016 3.38718 30.4878 3.38718C30.9224 3.38718 31.3049 3.47413 31.6352 3.66544H31.6178ZM28.0715 22.7089C27.4457 23.7698 26.8025 24.8133 26.1419 25.7872C24.9772 25.8741 23.7603 25.9263 22.5087 25.9263C21.2571 25.9263 20.0402 25.8741 18.8755 25.7872C18.2149 24.8133 17.5543 23.7698 16.9459 22.7089C16.3201 21.6307 15.7638 20.5698 15.2423 19.4915C15.7638 18.4133 16.3201 17.3524 16.9459 16.2741C17.5717 15.1785 18.2323 14.1524 18.8755 13.1959C20.0402 13.1089 21.2571 13.0567 22.5087 13.0567C23.7603 13.0567 24.9772 13.1089 26.1419 13.1959C26.8025 14.1524 27.4457 15.1785 28.0715 16.2741C28.6799 17.335 29.2536 18.4133 29.7751 19.4915C29.271 20.5524 28.7147 21.6133 28.0715 22.7089ZM30.6791 21.5263C31.1658 22.6915 31.583 23.822 31.9307 24.935C30.8181 25.1785 29.6186 25.4046 28.3496 25.5611C28.7668 24.9176 29.1667 24.2567 29.5665 23.5785C29.9663 22.9002 30.3314 22.2046 30.6791 21.5263ZM22.4913 30.3959C21.709 29.5437 20.9268 28.6046 20.1619 27.5959C20.9268 27.6307 21.6917 27.648 22.4913 27.648C23.291 27.648 24.0558 27.6307 24.8207 27.5959C24.0558 28.6046 23.2736 29.5263 22.4913 30.3959ZM16.633 25.5611C15.364 25.4046 14.1645 25.1959 13.0519 24.935C13.3996 23.822 13.8168 22.6915 14.3036 21.5263C14.6512 22.2046 15.0163 22.9002 15.4161 23.5785C15.8159 24.2567 16.2158 24.9176 16.633 25.5611ZM14.3036 17.4393C13.8168 16.2741 13.3996 15.1437 13.0519 14.0307C14.1645 13.7872 15.364 13.5611 16.633 13.4046C16.2158 14.048 15.8159 14.7089 15.4161 15.3872C15.0163 16.0654 14.6512 16.7437 14.3036 17.4393ZM22.4913 8.56978C23.2562 9.40457 24.0385 10.3437 24.8207 11.3698C24.0558 11.335 23.291 11.3176 22.4913 11.3176C21.6917 11.3176 20.9268 11.335 20.1619 11.3698C20.9442 10.3437 21.709 9.40457 22.4913 8.56978ZM29.5665 15.4046C29.1667 14.7263 28.7668 14.0654 28.3496 13.422C29.6186 13.5785 30.8181 13.7872 31.9307 14.048C31.6004 15.1437 31.1832 16.2741 30.6791 17.4567C30.3314 16.7785 29.9489 16.0828 29.5665 15.4046ZM12.1132 10.222C11.5743 6.83065 12.0263 4.44805 13.3648 3.68283C13.6951 3.49152 14.0776 3.40457 14.5122 3.40457C16.1984 3.40457 18.6495 4.79587 21.2918 7.35239C20.1445 8.58718 19.0146 9.99587 17.9194 11.5437C16.0246 11.7176 14.234 11.9959 12.6 12.3785C12.4087 11.648 12.2523 10.9176 12.148 10.2393L12.1132 10.222ZM4.23837 19.4915C4.23837 17.6828 6.91547 15.735 11.3657 14.4654C11.8698 16.0828 12.5304 17.7698 13.3127 19.4915C12.5304 21.1959 11.8698 22.8828 11.3657 24.5176C6.93286 23.248 4.23837 21.3176 4.23837 19.4915ZM19.6578 33.1089C16.998 35.2654 14.7034 36.0654 13.3648 35.3002C12.0263 34.535 11.5743 32.135 12.1132 28.7611C12.2175 28.0654 12.3914 27.3524 12.5652 26.622C14.1993 27.0046 15.9898 27.2828 17.8846 27.4567C18.9798 28.9872 20.1097 30.4133 21.2571 31.6654C20.7182 32.1872 20.1793 32.6915 19.6404 33.1263L19.6578 33.1089ZM32.8694 28.7611C33.4083 32.1524 32.9563 34.535 31.6178 35.3002C30.2792 36.0654 27.9846 35.2654 25.3249 33.1089C24.786 32.6741 24.2471 32.1698 23.7082 31.648C24.8729 30.3959 26.0028 28.9872 27.0806 27.4567C28.9754 27.2828 30.766 27.0046 32.4 26.622C32.5913 27.3524 32.7477 28.0828 32.852 28.7611H32.8694ZM33.6169 24.5002C33.1128 22.8828 32.4522 21.1959 31.6699 19.4741C32.4696 17.735 33.1128 16.048 33.6169 14.448C38.0671 15.7176 40.7442 17.648 40.7442 19.4741C40.7442 21.3002 38.0671 23.2307 33.6169 24.5002Z" fill="#F8F9FA"/>
</g>
<path d="M2.34475 59V48.44H6.02475C6.55808 48.44 7.04342 48.4827 7.48075 48.568C7.92875 48.6533 8.32342 48.7813 8.66475 48.952C9.01675 49.1227 9.31008 49.3307 9.54475 49.576C9.79008 49.8213 9.97142 50.1093 10.0888 50.44C10.2168 50.76 10.2808 51.1173 10.2808 51.512C10.2808 51.8853 10.2221 52.2267 10.1048 52.536C9.99808 52.8453 9.83275 53.1173 9.60875 53.352C9.38475 53.5867 9.10742 53.7787 8.77675 53.928C8.44608 54.0667 8.06208 54.1627 7.62475 54.216V54.424C8.00875 54.4667 8.34475 54.568 8.63275 54.728C8.92075 54.888 9.16608 55.1227 9.36875 55.432C9.57142 55.7307 9.74742 56.1307 9.89675 56.632L10.5688 59H8.98475L8.44075 56.84C8.34475 56.4027 8.17942 56.0507 7.94475 55.784C7.72075 55.5173 7.43808 55.32 7.09675 55.192C6.75542 55.064 6.35542 55 5.89675 55H3.81675V59H2.34475ZM3.81675 53.8H5.89675C6.84608 53.8 7.56075 53.6293 8.04075 53.288C8.53142 52.9467 8.77675 52.424 8.77675 51.72C8.77675 51.016 8.54208 50.4987 8.07275 50.168C7.61408 49.8267 6.89942 49.656 5.92875 49.656H3.81675V53.8ZM16.1441 59.208C15.4935 59.208 14.9175 59.112 14.4161 58.92C13.9255 58.7173 13.5095 58.4293 13.1681 58.056C12.8268 57.6827 12.5708 57.24 12.4001 56.728C12.2295 56.216 12.1441 55.64 12.1441 55C12.1441 54.3493 12.2295 53.752 12.4001 53.208C12.5708 52.664 12.8215 52.1893 13.1521 51.784C13.4828 51.3787 13.8881 51.0693 14.3681 50.856C14.8481 50.632 15.3975 50.52 16.0161 50.52C16.5601 50.52 17.0561 50.6107 17.5041 50.792C17.9521 50.9733 18.3308 51.256 18.6401 51.64C18.9601 52.0133 19.2001 52.488 19.3601 53.064C19.5201 53.6293 19.5841 54.296 19.5521 55.064L13.0561 55.112V54.12L18.6721 54.072L18.1761 54.744C18.2295 54.072 18.1655 53.5173 17.9841 53.08C17.8028 52.6427 17.5415 52.312 17.2001 52.088C16.8695 51.864 16.4748 51.752 16.0161 51.752C15.5255 51.752 15.0935 51.88 14.7201 52.136C14.3468 52.392 14.0588 52.76 13.8561 53.24C13.6641 53.72 13.5681 54.3013 13.5681 54.984C13.5681 55.9653 13.7868 56.7173 14.2241 57.24C14.6615 57.752 15.3121 58.008 16.1761 58.008C16.5068 58.008 16.7948 57.9707 17.0401 57.896C17.2961 57.8107 17.5095 57.6987 17.6801 57.56C17.8615 57.4107 18.0055 57.24 18.1121 57.048C18.2295 56.856 18.3201 56.648 18.3841 56.424L19.6641 56.728C19.5681 57.112 19.4188 57.4587 19.2161 57.768C19.0241 58.0667 18.7788 58.3227 18.4801 58.536C18.1921 58.7493 17.8561 58.9147 17.4721 59.032C17.0881 59.1493 16.6455 59.208 16.1441 59.208ZM23.5743 59.208C23.1263 59.208 22.7209 59.1227 22.3583 58.952C21.9956 58.7707 21.7076 58.5093 21.4943 58.168C21.2809 57.816 21.1743 57.3733 21.1743 56.84C21.1743 56.4453 21.2436 56.0987 21.3823 55.8C21.5316 55.5013 21.7556 55.2453 22.0543 55.032C22.3636 54.8187 22.7582 54.6427 23.2383 54.504C23.7183 54.3653 24.3049 54.248 24.9983 54.152C25.3929 54.0987 25.7129 54.0453 25.9583 53.992C26.2143 53.9387 26.4009 53.8533 26.5183 53.736C26.6356 53.608 26.6943 53.4213 26.6943 53.176C26.6943 52.7707 26.5556 52.4293 26.2783 52.152C26.0009 51.8747 25.5636 51.736 24.9663 51.736C24.6569 51.736 24.3423 51.7893 24.0223 51.896C23.7023 52.0027 23.4196 52.184 23.1743 52.44C22.9396 52.6853 22.7903 53.032 22.7263 53.48L21.3823 53.032C21.4676 52.648 21.6063 52.3013 21.7983 51.992C22.0009 51.6827 22.2569 51.4213 22.5663 51.208C22.8756 50.984 23.2329 50.8133 23.6383 50.696C24.0543 50.5787 24.5129 50.52 25.0143 50.52C25.7076 50.52 26.2836 50.6373 26.7423 50.872C27.2116 51.1067 27.5583 51.4693 27.7823 51.96C28.0169 52.44 28.1343 53.0587 28.1343 53.816V55.656C28.1343 55.9867 28.1396 56.3493 28.1503 56.744C28.1716 57.128 28.1983 57.5173 28.2303 57.912C28.2623 58.296 28.2943 58.6587 28.3263 59H26.9823C26.9503 58.6587 26.9183 58.3173 26.8863 57.976C26.8649 57.6347 26.8489 57.2933 26.8383 56.952H26.6303C26.4703 57.3467 26.2569 57.7147 25.9903 58.056C25.7236 58.3973 25.3876 58.6747 24.9823 58.888C24.5876 59.1013 24.1183 59.208 23.5743 59.208ZM24.0063 58.024C24.2409 58.024 24.4756 57.9867 24.7103 57.912C24.9556 57.8373 25.1956 57.7147 25.4303 57.544C25.6756 57.3733 25.9049 57.1547 26.1183 56.888C26.3423 56.6213 26.5396 56.3013 26.7103 55.928V54.328L27.1263 54.408C26.9556 54.5787 26.7263 54.7067 26.4383 54.792C26.1609 54.8773 25.8516 54.9467 25.5103 55C25.1689 55.0533 24.8276 55.112 24.4863 55.176C24.1449 55.2293 23.8303 55.3147 23.5423 55.432C23.2649 55.5387 23.0409 55.6933 22.8703 55.896C22.6996 56.0987 22.6143 56.376 22.6143 56.728C22.6143 57.1547 22.7423 57.48 22.9983 57.704C23.2543 57.9173 23.5903 58.024 24.0063 58.024ZM34.1285 59.208C33.4032 59.208 32.7845 59.0907 32.2725 58.856C31.7712 58.6213 31.3605 58.3067 31.0405 57.912C30.7312 57.5173 30.5018 57.064 30.3525 56.552C30.2138 56.04 30.1445 55.5067 30.1445 54.952C30.1445 54.344 30.2245 53.7733 30.3845 53.24C30.5445 52.7067 30.7845 52.2373 31.1045 51.832C31.4352 51.416 31.8405 51.096 32.3205 50.872C32.8112 50.6373 33.3818 50.52 34.0325 50.52C34.6618 50.52 35.2165 50.632 35.6965 50.856C36.1765 51.0693 36.5658 51.3733 36.8645 51.768C37.1738 52.1627 37.3712 52.632 37.4565 53.176L36.0645 53.56C36.0432 53.2613 35.9525 52.9733 35.7925 52.696C35.6432 52.4187 35.4192 52.1947 35.1205 52.024C34.8218 51.8427 34.4538 51.752 34.0165 51.752C33.6005 51.752 33.2432 51.832 32.9445 51.992C32.6565 52.152 32.4112 52.376 32.2085 52.664C32.0165 52.952 31.8672 53.288 31.7605 53.672C31.6645 54.056 31.6165 54.472 31.6165 54.92C31.6165 55.5387 31.7018 56.0773 31.8725 56.536C32.0538 56.9947 32.3312 57.352 32.7045 57.608C33.0778 57.864 33.5578 57.992 34.1445 57.992C34.5818 57.992 34.9552 57.9173 35.2645 57.768C35.5738 57.608 35.8192 57.3893 36.0005 57.112C36.1818 56.824 36.2992 56.488 36.3525 56.104L37.6965 56.408C37.6218 56.8667 37.4832 57.272 37.2805 57.624C37.0778 57.976 36.8218 58.2693 36.5125 58.504C36.2032 58.728 35.8458 58.8987 35.4405 59.016C35.0458 59.144 34.6085 59.208 34.1285 59.208ZM41.9338 59.16C41.1658 59.16 40.5951 58.952 40.2218 58.536C39.8484 58.12 39.6618 57.4853 39.6618 56.632V51.944H38.4138L38.4298 50.728H39.2138C39.4804 50.728 39.6724 50.68 39.7898 50.584C39.9178 50.488 39.9924 50.328 40.0138 50.104L40.1738 48.856H41.0698V50.728H43.4538V51.96H41.0698V56.6C41.0698 57.0267 41.1658 57.336 41.3578 57.528C41.5604 57.7093 41.8484 57.8 42.2218 57.8C42.4244 57.8 42.6324 57.7733 42.8458 57.72C43.0698 57.6667 43.2884 57.56 43.5018 57.4V58.856C43.1924 58.9733 42.9044 59.0533 42.6378 59.096C42.3818 59.1387 42.1471 59.16 41.9338 59.16Z" fill="#F8F9FA"/>
<g clip-path="url(#clip1_3002_960)">
<path d="M102.5 5L82.4992 39.6422L62.5 5H70.5L82.4992 25.7847L94.5 5H102.5Z" fill="#F8F9FA"/>
<path d="M92.7386 5L82.5013 22.7284L72.2656 5H77.8832L82.5013 13L87.121 5H92.7386Z" fill="#F8F9FA"/>
</g>
<path d="M64.6358 59L60.9878 48.44H62.5878L65.6118 57.688H65.7718L68.8278 48.44H70.4118L66.7318 59H64.6358ZM74.4434 59.208C73.5261 59.208 72.8328 58.888 72.3634 58.248C71.8941 57.608 71.6594 56.6533 71.6594 55.384V50.728H73.1314V55.256C73.1314 56.152 73.2701 56.8187 73.5474 57.256C73.8248 57.6933 74.2621 57.912 74.8594 57.912C75.1901 57.912 75.4834 57.832 75.7394 57.672C76.0061 57.512 76.2408 57.2827 76.4434 56.984C76.6461 56.6853 76.8114 56.3333 76.9394 55.928C77.0674 55.512 77.1528 55.064 77.1954 54.584V50.728H78.6514V55.544V59H77.3554L77.4834 56.344H77.2434C77.1048 57.0053 76.9074 57.5493 76.6514 57.976C76.4061 58.392 76.0968 58.7013 75.7234 58.904C75.3501 59.1067 74.9234 59.208 74.4434 59.208ZM84.7301 59.208C84.0794 59.208 83.5034 59.112 83.0021 58.92C82.5114 58.7173 82.0954 58.4293 81.7541 58.056C81.4127 57.6827 81.1567 57.24 80.9861 56.728C80.8154 56.216 80.7301 55.64 80.7301 55C80.7301 54.3493 80.8154 53.752 80.9861 53.208C81.1567 52.664 81.4074 52.1893 81.7381 51.784C82.0687 51.3787 82.4741 51.0693 82.9541 50.856C83.4341 50.632 83.9834 50.52 84.6021 50.52C85.1461 50.52 85.6421 50.6107 86.0901 50.792C86.5381 50.9733 86.9167 51.256 87.2261 51.64C87.5461 52.0133 87.7861 52.488 87.9461 53.064C88.1061 53.6293 88.1701 54.296 88.1381 55.064L81.6421 55.112V54.12L87.2581 54.072L86.7621 54.744C86.8154 54.072 86.7514 53.5173 86.5701 53.08C86.3887 52.6427 86.1274 52.312 85.7861 52.088C85.4554 51.864 85.0607 51.752 84.6021 51.752C84.1114 51.752 83.6794 51.88 83.3061 52.136C82.9327 52.392 82.6447 52.76 82.4421 53.24C82.2501 53.72 82.1541 54.3013 82.1541 54.984C82.1541 55.9653 82.3727 56.7173 82.8101 57.24C83.2474 57.752 83.8981 58.008 84.7621 58.008C85.0927 58.008 85.3807 57.9707 85.6261 57.896C85.8821 57.8107 86.0954 57.6987 86.2661 57.56C86.4474 57.4107 86.5914 57.24 86.6981 57.048C86.8154 56.856 86.9061 56.648 86.9701 56.424L88.2501 56.728C88.1541 57.112 88.0047 57.4587 87.8021 57.768C87.6101 58.0667 87.3647 58.3227 87.0661 58.536C86.7781 58.7493 86.4421 58.9147 86.0581 59.032C85.6741 59.1493 85.2314 59.208 84.7301 59.208ZM90.4002 59.192C90.0589 59.192 89.8029 59.1173 89.6322 58.968C89.4615 58.8187 89.3762 58.5787 89.3762 58.248C89.3762 57.928 89.4615 57.6933 89.6322 57.544C89.8029 57.3947 90.0589 57.32 90.4002 57.32C90.7522 57.32 91.0135 57.3947 91.1842 57.544C91.3655 57.6933 91.4562 57.9333 91.4562 58.264C91.4562 58.8827 91.1042 59.192 90.4002 59.192ZM92.3632 61.944C92.2245 61.944 92.0752 61.928 91.9152 61.896C91.7552 61.8747 91.5845 61.8373 91.4032 61.784L91.2912 60.44C91.9845 60.6 92.4859 60.6 92.7952 60.44C93.1152 60.28 93.2752 59.8747 93.2752 59.224V50.728H94.7472V59.064C94.7472 59.5333 94.6939 59.9493 94.5872 60.312C94.4912 60.6747 94.3472 60.9733 94.1552 61.208C93.9632 61.4533 93.7179 61.6347 93.4192 61.752C93.1205 61.88 92.7685 61.944 92.3632 61.944ZM94.0112 49.288C93.6699 49.288 93.4139 49.2187 93.2432 49.08C93.0725 48.9413 92.9872 48.7333 92.9872 48.456C92.9872 48.1787 93.0725 47.9707 93.2432 47.832C93.4139 47.6933 93.6645 47.624 93.9952 47.624C94.3365 47.624 94.5925 47.6933 94.7632 47.832C94.9339 47.9707 95.0192 48.1787 95.0192 48.456C95.0192 48.7227 94.9339 48.9307 94.7632 49.08C94.5925 49.2187 94.3419 49.288 94.0112 49.288ZM100.344 59.208C99.7678 59.208 99.2558 59.144 98.8078 59.016C98.3598 58.8987 97.9865 58.728 97.6878 58.504C97.3891 58.2693 97.1598 57.992 96.9998 57.672C96.8398 57.352 96.7545 57 96.7438 56.616L97.9758 56.296C97.9545 56.648 98.0398 56.9573 98.2318 57.224C98.4345 57.48 98.7171 57.6773 99.0798 57.816C99.4531 57.9547 99.9011 58.024 100.424 58.024C101.053 58.024 101.538 57.9173 101.88 57.704C102.232 57.4907 102.408 57.1973 102.408 56.824C102.408 56.5253 102.312 56.296 102.12 56.136C101.928 55.9653 101.661 55.832 101.32 55.736C100.989 55.6293 100.594 55.5333 100.136 55.448C99.7518 55.3627 99.3678 55.2667 98.9838 55.16C98.5998 55.0533 98.2478 54.9147 97.9278 54.744C97.6185 54.5627 97.3678 54.328 97.1758 54.04C96.9838 53.752 96.8878 53.3947 96.8878 52.968C96.8878 52.4667 97.0211 52.0347 97.2878 51.672C97.5545 51.3093 97.9331 51.0267 98.4238 50.824C98.9145 50.6213 99.5011 50.52 100.184 50.52C100.866 50.52 101.448 50.6267 101.928 50.84C102.408 51.0427 102.786 51.3307 103.064 51.704C103.341 52.0773 103.496 52.5147 103.528 53.016L102.264 53.336C102.253 52.984 102.157 52.6853 101.976 52.44C101.805 52.1947 101.56 52.0133 101.24 51.896C100.92 51.768 100.546 51.704 100.12 51.704C99.5545 51.704 99.1065 51.8107 98.7758 52.024C98.4451 52.2373 98.2798 52.5307 98.2798 52.904C98.2798 53.1813 98.3758 53.4053 98.5678 53.576C98.7705 53.7467 99.0425 53.88 99.3838 53.976C99.7251 54.072 100.104 54.168 100.52 54.264C100.946 54.3493 101.352 54.4453 101.736 54.552C102.13 54.6587 102.482 54.7973 102.792 54.968C103.101 55.1387 103.346 55.368 103.528 55.656C103.709 55.9333 103.8 56.2907 103.8 56.728C103.8 57.272 103.656 57.7307 103.368 58.104C103.08 58.4667 102.674 58.744 102.152 58.936C101.64 59.1173 101.037 59.208 100.344 59.208Z" fill="#F8F9FA"/>
<defs>
<clipPath id="clip0_3002_960">
<rect width="40" height="40" fill="white" transform="translate(2.5)"/>
</clipPath>
<clipPath id="clip1_3002_960">
<rect width="40" height="40" fill="white" transform="translate(62.5)"/>
</clipPath>
</defs>
</svg>
